<?xml version="1.0" encoding="UTF-8"?>
<svg id="Layer_1" xmlns="http://www.w3.org/2000/svg" version="1.1" viewBox="0 0 640 640">
  <!-- Generator: Adobe Illustrator 29.7.1, SVG Export Plug-In . SVG Version: 2.1.1 Build 8)  -->
  <defs>
    <style>
      .st0 {
        fill: #e3e3e3;
      }
    </style>
  </defs>
  <path class="st0" d="M545.7,304.1c-17.6-1.2-32.9,12-34.2,29.7-3.3,47-23.6,89.4-54.8,121l-31.7-31.8c-6.9-6.9-17.2-8.9-26.2-5.2-9,3.7-14.8,12.5-14.8,22.2v112c0,13.3,10.7,24,24,24h112c9.7,0,18.5-5.8,22.2-14.8s1.7-19.3-5.2-26.2l-35-35c41.7-42.2,68.9-98.8,73.4-161.8,1.2-17.6-12-32.9-29.7-34.2v.1ZM103,105l35,35c-41.7,42.2-68.9,98.8-73.4,161.8-1.2,17.6,12,32.9,29.7,34.2,17.7,1.3,32.9-12,34.2-29.7,3.3-47,23.6-89.4,54.8-121l31.7,31.7c6.9,6.9,17.2,8.9,26.2,5.2s14.8-12.5,14.8-22.2v-112c0-13.3-10.7-24-24-24h-112c-9.7,0-18.5,5.8-22.2,14.8-3.7,9-1.6,19.3,5.2,26.2ZM304,94.3c-1.2,17.6,12,32.9,29.7,34.2,47,3.3,89.4,23.6,121,54.8l-31.7,31.7c-6.9,6.9-8.9,17.2-5.2,26.2,3.7,9,12.5,14.8,22.2,14.8h112c13.3,0,24-10.7,24-24v-112c0-9.7-5.8-18.5-14.8-22.2-9-3.7-19.3-1.6-26.2,5.2l-35,35c-42.2-41.7-98.8-68.9-161.8-73.4-17.6-1.2-32.9,12-34.2,29.7ZM105,537l35-35c42.2,41.7,98.8,68.9,161.8,73.4,17.6,1.2,32.9-12,34.2-29.7s-12-32.9-29.7-34.2c-47-3.3-89.4-23.6-121-54.8l31.7-31.7c6.9-6.9,8.9-17.2,5.2-26.2s-12.5-14.8-22.2-14.8h-112c-13.3,0-24,10.7-24,24v112c0,9.7,5.8,18.5,14.8,22.2s19.3,1.6,26.2-5.2Z"/>
</svg>