<?xml version="1.0" encoding="UTF-8"?>
<svg id="Layer_1" xmlns="http://www.w3.org/2000/svg" version="1.1" viewBox="0 0 640 640">
  <!-- Generator: Adobe Illustrator 29.7.1, SVG Export Plug-In . SVG Version: 2.1.1 Build 8)  -->
  <defs>
    <style>
      .st0 {
        fill: #fff;
      }

      .st1 {
        fill: #ffd1ce;
      }
    </style>
  </defs>
  <rect class="st1" x="17.14" y="20.92" width="605.72" height="598.16"/>
  <path class="st0" d="M64,160c0-17.7,14.3-32,32-32h384c17.7,0,32,14.3,32,32s-14.3,32-32,32H96c-17.7,0-32-14.3-32-32ZM128,320c0-17.7,14.3-32,32-32h384c17.7,0,32,14.3,32,32s-14.3,32-32,32H160c-17.7,0-32-14.3-32-32ZM512,480c0,17.7-14.3,32-32,32H96c-17.7,0-32-14.3-32-32s14.3-32,32-32h384c17.7,0,32,14.3,32,32Z"/>
</svg>