<?xml version="1.0" encoding="UTF-8"?>
<svg id="Layer_1" xmlns="http://www.w3.org/2000/svg" version="1.1" viewBox="0 0 640 640">
  <!-- Generator: Adobe Illustrator 29.7.1, SVG Export Plug-In . SVG Version: 2.1.1 Build 8)  -->
  <defs>
    <style>
      .st0 {
        fill: #d0e9e5;
      }
    </style>
  </defs>
  <path class="st0" d="M392.8,65.2c-17-4.9-34.7,5-39.6,22l-128,448c-4.9,17,5,34.7,22,39.6,17,4.9,34.7-5,39.6-22L414.8,104.8c4.9-17-5-34.7-22-39.6ZM457.4,201.3c-12.5,12.5-12.5,32.8,0,45.3l73.4,73.4-73.4,73.4c-12.5,12.5-12.5,32.8,0,45.3s32.8,12.5,45.3,0l96-96c12.5-12.5,12.5-32.8,0-45.3l-96-96c-12.5-12.5-32.8-12.5-45.3,0v-.1h0ZM182.7,201.3c-12.5-12.5-32.8-12.5-45.3,0l-96,96c-12.5,12.5-12.5,32.8,0,45.3l96,96c12.5,12.5,32.8,12.5,45.3,0s12.5-32.8,0-45.3l-73.4-73.3,73.3-73.4c12.5-12.5,12.5-32.8,0-45.3h.1,0Z"/>
</svg>