<?xml version="1.0" encoding="UTF-8"?>
<svg id="Layer_1" xmlns="http://www.w3.org/2000/svg" version="1.1" viewBox="0 0 640 640">
  <!-- Generator: Adobe Illustrator 29.7.1, SVG Export Plug-In . SVG Version: 2.1.1 Build 8)  -->
  <defs>
    <style>
      .st0 {
        fill: #e3e3e3;
      }
    </style>
  </defs>
  <path class="st0" d="M393.7,512c-5.1,0-9.7,3.7-9.7,8.8v7.2c0,26.5-21.5,48-48,48h-160c-26.5,0-48-21.5-48-48v-63.6c0-12.6-5.1-24.5-13.1-34.2-31.8-38.7-50.9-88.2-50.9-142.2,0-123.7,100.3-224,224-224,112.7,0,206,83.3,221.7,191.7.4,3,1.7,5.9,3.6,8.3l35.8,42.9c7,8.4,10.9,19.1,10.9,30.1,0,25.9-21,47-47,47h-1c-8.8,0-16,7.2-16,16v48c0,35.3-28.7,64-64,64h-38.3ZM288,128c-13.3,0-24,10.7-24,24,0,22.9-27.7,34.4-43.9,18.2-9.4-9.4-24.6-9.4-33.9,0-9.3,9.4-9.4,24.6,0,33.9,16.2,16.2,4.7,43.9-18.2,43.9-13.3,0-24,10.7-24,24s10.7,24,24,24c22.9,0,34.4,27.7,18.2,43.9-9.4,9.4-9.4,24.6,0,33.9,9.4,9.3,24.6,9.4,33.9,0,16.2-16.2,43.9-4.7,43.9,18.2,0,13.3,10.7,24,24,24s24-10.7,24-24c0-22.9,27.7-34.4,43.9-18.2,9.4,9.4,24.6,9.4,33.9,0,9.3-9.4,9.4-24.6,0-33.9-16.2-16.2-4.7-43.9,18.2-43.9,13.3,0,24-10.7,24-24s-10.7-24-24-24c-22.9,0-34.4-27.7-18.2-43.9,9.4-9.4,9.4-24.6,0-33.9-9.4-9.3-24.6-9.4-33.9,0-16.2,16.2-43.9,4.7-43.9-18.2,0-13.3-10.7-24-24-24ZM256,216c13.3,0,24,10.7,24,24s-10.7,24-24,24-24-10.7-24-24,10.7-24,24-24ZM296,304c0-13.3,10.7-24,24-24s24,10.7,24,24-10.7,24-24,24-24-10.7-24-24Z"/>
</svg>