<?xml version="1.0" encoding="UTF-8"?>
<svg id="Layer_1" xmlns="http://www.w3.org/2000/svg" version="1.1" viewBox="0 0 640 640">
  <!-- Generator: Adobe Illustrator 29.7.1, SVG Export Plug-In . SVG Version: 2.1.1 Build 8)  -->
  <defs>
    <style>
      .st0 {
        fill: #ffd1ce;
      }
    </style>
  </defs>
  <path class="st0" d="M405.65,524.29c-5.35,0-10.17,3.88-10.17,9.23v7.55c0,27.78-22.54,50.32-50.32,50.32h-167.74c-27.78,0-50.32-22.54-50.32-50.32v-66.68c0-13.21-5.35-25.69-13.73-35.85-33.34-40.57-53.36-92.47-53.36-149.08,0-129.69,105.15-234.84,234.84-234.84,118.15,0,215.97,87.33,232.43,200.98.42,3.15,1.78,6.19,3.77,8.7l37.53,44.98c7.34,8.81,11.43,20.02,11.43,31.56,0,27.15-22.02,49.27-49.27,49.27h-1.05c-9.23,0-16.77,7.55-16.77,16.77v50.32c0,37.01-30.09,67.1-67.1,67.1h-40.15ZM294.84,121.71c-13.94,0-25.16,11.22-25.16,25.16,0,24.01-29.04,36.06-46.02,19.08-9.85-9.85-25.79-9.85-35.54,0-9.75,9.85-9.85,25.79,0,35.54,16.98,16.98,4.93,46.02-19.08,46.02-13.94,0-25.16,11.22-25.16,25.16s11.22,25.16,25.16,25.16c24.01,0,36.06,29.04,19.08,46.02-9.85,9.85-9.85,25.79,0,35.54,9.85,9.75,25.79,9.85,35.54,0,16.98-16.98,46.02-4.93,46.02,19.08,0,13.94,11.22,25.16,25.16,25.16s25.16-11.22,25.16-25.16c0-24.01,29.04-36.06,46.02-19.08,9.85,9.85,25.79,9.85,35.54,0,9.75-9.85,9.85-25.79,0-35.54-16.98-16.98-4.93-46.02,19.08-46.02,13.94,0,25.16-11.22,25.16-25.16s-11.22-25.16-25.16-25.16c-24.01,0-36.06-29.04-19.08-46.02,9.85-9.85,9.85-25.79,0-35.54-9.85-9.75-25.79-9.85-35.54,0-16.98,16.98-46.02,4.93-46.02-19.08,0-13.94-11.22-25.16-25.16-25.16h0ZM261.29,213.97c13.94,0,25.16,11.22,25.16,25.16s-11.22,25.16-25.16,25.16-25.16-11.22-25.16-25.16,11.22-25.16,25.16-25.16ZM303.23,306.23c0-13.94,11.22-25.16,25.16-25.16s25.16,11.22,25.16,25.16-11.22,25.16-25.16,25.16-25.16-11.22-25.16-25.16Z"/>
</svg>