<?xml version="1.0" encoding="UTF-8"?>
<svg id="Layer_1" xmlns="http://www.w3.org/2000/svg" version="1.1" viewBox="0 0 640 512">
  <!-- Generator: Adobe Illustrator 29.7.1, SVG Export Plug-In . SVG Version: 2.1.1 Build 8)  -->
  <defs>
    <style>
      .st0 {
        fill: #ffd1ce;
      }
    </style>
  </defs>
  <path class="st0" d="M110,140c0-64.06,51.94-116,116-116s116,51.94,116,116-51.94,116-116,116-116-51.94-116-116ZM23,461.08c0-89.27,72.32-161.58,161.58-161.58h82.83c89.27,0,161.58,72.32,161.58,161.58,0,14.86-12.05,26.92-26.92,26.92H49.92c-14.86,0-26.92-12.05-26.92-26.92ZM575.18,488h-124.88c4.89-8.52,7.79-18.4,7.79-29v-7.25c0-55.01-24.56-104.4-63.26-137.57,2.17-.09,4.26-.18,6.43-.18h55.64c80.66,0,146.09,65.43,146.09,146.18,0,15.41-12.51,27.82-27.82,27.82ZM414.5,256c-28.09,0-53.47-11.42-71.87-29.82,17.85-24.11,28.37-53.92,28.37-86.18,0-24.29-5.98-47.22-16.58-67.33,16.86-12.32,37.61-19.67,60.08-19.67,56.1,0,101.5,45.4,101.5,101.5s-45.4,101.5-101.5,101.5Z"/>
</svg>