<?xml version="1.0" encoding="UTF-8"?>
<svg id="Layer_1" xmlns="http://www.w3.org/2000/svg" version="1.1" viewBox="0 0 640 512">
  <!-- Generator: Adobe Illustrator 29.7.1, SVG Export Plug-In . SVG Version: 2.1.1 Build 8)  -->
  <defs>
    <style>
      .st0 {
        fill: #e3e3e3;
      }
    </style>
  </defs>
  <path class="st0" d="M96,128C96,57.31,153.31,0,224,0s128,57.31,128,128-57.31,128-128,128-128-57.31-128-128ZM0,482.3c0-98.5,79.8-178.3,178.3-178.3h91.4c98.5,0,178.3,79.8,178.3,178.3,0,16.4-13.3,29.7-29.7,29.7H29.7c-16.4,0-29.7-13.3-29.7-29.7ZM609.3,512h-137.8c5.4-9.4,8.6-20.3,8.6-32v-8c0-60.7-27.1-115.2-69.8-151.8,2.4-.1,4.7-.2,7.1-.2h61.4c89,0,161.2,72.2,161.2,161.3,0,17-13.8,30.7-30.7,30.7ZM432,256c-31,0-59-12.6-79.3-32.9,19.7-26.6,31.3-59.5,31.3-95.1,0-26.8-6.6-52.1-18.3-74.3,18.6-13.6,41.5-21.7,66.3-21.7,61.9,0,112,50.1,112,112s-50.1,112-112,112Z"/>
</svg>