<?xml version="1.0" encoding="UTF-8"?>
<svg id="Layer_1" data-name="Layer 1" xmlns="http://www.w3.org/2000/svg" viewBox="0 0 1200 1200">
  <defs>
    <style>
      .cls-1, .cls-2, .cls-3, .cls-4, .cls-5, .cls-6, .cls-7, .cls-8, .cls-9, .cls-10, .cls-11, .cls-12, .cls-13, .cls-14 {
        stroke-miterlimit: 10;
      }

      .cls-1, .cls-2, .cls-3, .cls-5, .cls-6, .cls-7, .cls-11, .cls-12, .cls-13, .cls-14 {
        stroke-linecap: round;
      }

      .cls-1, .cls-3, .cls-5, .cls-9 {
        stroke: #ccecfc;
      }

      .cls-1, .cls-3, .cls-5, .cls-9, .cls-10 {
        fill: none;
      }

      .cls-1, .cls-8 {
        stroke-width: 3px;
      }

      .cls-15 {
        fill: #d1d3d4;
      }

      .cls-16 {
        fill: #dac0b6;
      }

      .cls-17 {
        fill: #595a5c;
      }

      .cls-18 {
        fill: #a9afbb;
      }

      .cls-19 {
        fill: #231f20;
      }

      .cls-2 {
        fill: #2bb673;
        stroke: #cbe7cf;
      }

      .cls-2, .cls-3, .cls-7, .cls-9, .cls-11, .cls-12, .cls-13, .cls-14 {
        stroke-width: 2px;
      }

      .cls-4 {
        fill: #414142;
        stroke: #231f20;
      }

      .cls-20 {
        fill: #160d37;
      }

      .cls-21 {
        fill: #3a4248;
      }

      .cls-22 {
        fill: #bec4d2;
      }

      .cls-6, .cls-7, .cls-11, .cls-12, .cls-13, .cls-14 {
        fill: #ccecfc;
      }

      .cls-6, .cls-14 {
        stroke: #cae9eb;
      }

      .cls-7 {
        stroke: #fdb848;
      }

      .cls-23 {
        fill: #bdbec1;
      }

      .cls-24 {
        fill: #dbaeae;
      }

      .cls-25 {
        fill: #dbc1b7;
      }

      .cls-26 {
        fill: #adb4c0;
      }

      .cls-8 {
        fill: #e7e8e9;
        stroke: #939598;
      }

      .cls-10 {
        stroke: #cba2a2;
      }

      .cls-27 {
        fill: #6d6f71;
      }

      .cls-11 {
        stroke: #c1155d;
      }

      .cls-12 {
        stroke: #22a4de;
      }

      .cls-28 {
        fill: #f4d6ca;
      }

      .cls-13 {
        stroke: #6abd45;
      }
    </style>
  </defs>
  <rect class="cls-4" x="156.98" y="966.37" width="319.25" height="254.32"/>
  <rect class="cls-27" x="156.98" y="965.22" width="293.74" height="22.22"/>
  <rect class="cls-4" x="630.15" y="422.22" width="439.47" height="268.43"/>
  <g>
    <line class="cls-6" x1="789.88" y1="560.16" x2="797.3" y2="560.16"/>
    <line class="cls-6" x1="789.88" y1="566.7" x2="797.3" y2="566.7"/>
    <line class="cls-6" x1="789.88" y1="573.24" x2="797.3" y2="573.24"/>
    <line class="cls-6" x1="789.88" y1="579.79" x2="797.3" y2="579.79"/>
    <line class="cls-6" x1="789.88" y1="586.33" x2="797.3" y2="586.33"/>
  </g>
  <rect class="cls-20" x="653.95" y="469.14" width="113.35" height="177.38"/>
  <g>
    <line class="cls-14" x1="295.06" y1="1012.64" x2="349.01" y2="1012.64"/>
    <line class="cls-14" x1="295.06" y1="1021.99" x2="410.06" y2="1021.99"/>
    <line class="cls-14" x1="349.01" y1="1032.27" x2="421.12" y2="1032.27"/>
    <line class="cls-14" x1="298.78" y1="1045.36" x2="370.89" y2="1045.36"/>
    <line class="cls-14" x1="298.78" y1="1054.47" x2="347.47" y2="1054.47"/>
    <line class="cls-14" x1="356.43" y1="1054.47" x2="427.89" y2="1054.47"/>
    <line class="cls-14" x1="427.89" y1="1064.99" x2="373.94" y2="1064.99"/>
    <line class="cls-14" x1="427.89" y1="1074.35" x2="334.34" y2="1074.35"/>
    <line class="cls-14" x1="373.94" y1="1084.63" x2="301.83" y2="1084.63"/>
    <line class="cls-14" x1="388.12" y1="1097.71" x2="352.06" y2="1097.71"/>
    <line class="cls-14" x1="424.17" y1="1106.83" x2="375.49" y2="1106.83"/>
    <line class="cls-14" x1="366.52" y1="1106.83" x2="295.06" y2="1106.83"/>
    <line class="cls-14" x1="295.06" y1="1161.89" x2="349.01" y2="1161.89"/>
    <line class="cls-14" x1="295.06" y1="1152.54" x2="410.06" y2="1152.54"/>
    <line class="cls-14" x1="349.01" y1="1142.26" x2="421.12" y2="1142.26"/>
    <line class="cls-14" x1="298.78" y1="1129.17" x2="370.89" y2="1129.17"/>
    <line class="cls-14" x1="298.78" y1="1120.06" x2="347.47" y2="1120.06"/>
    <line class="cls-14" x1="356.43" y1="1120.06" x2="427.89" y2="1120.06"/>
    <line class="cls-14" x1="295.06" y1="1171.24" x2="410.06" y2="1171.24"/>
    <line class="cls-14" x1="295.06" y1="1180.6" x2="410.06" y2="1180.6"/>
    <line class="cls-14" x1="334.34" y1="1186.95" x2="406.44" y2="1186.95"/>
    <line class="cls-7" x1="295.06" y1="1193.33" x2="410.06" y2="1193.33"/>
    <line class="cls-7" x1="356.43" y1="1161.89" x2="471.43" y2="1161.89"/>
    <line class="cls-7" x1="295.06" y1="1097.71" x2="345.18" y2="1097.71"/>
    <line class="cls-7" x1="356.43" y1="1012.64" x2="406.55" y2="1012.64"/>
    <line class="cls-11" x1="296.62" y1="1032.27" x2="340.66" y2="1032.27"/>
    <line class="cls-11" x1="381.72" y1="1085.01" x2="425.76" y2="1085.01"/>
    <line class="cls-11" x1="296.62" y1="1186.96" x2="329" y2="1186.96"/>
    <line class="cls-13" x1="300.42" y1="1064.99" x2="332.79" y2="1064.99"/>
    <line class="cls-13" x1="377.69" y1="1129.17" x2="410.06" y2="1129.17"/>
    <line class="cls-12" x1="337.89" y1="1064.99" x2="366.52" y2="1064.99"/>
    <line class="cls-12" x1="295.06" y1="1142.26" x2="340.66" y2="1142.26"/>
    <line class="cls-12" x1="377.84" y1="1045.36" x2="437.03" y2="1045.36"/>
  </g>
  <g>
    <g>
      <line class="cls-7" x1="965.53" y1="630.03" x2="921.79" y2="630.03"/>
      <line class="cls-14" x1="1031.56" y1="620.76" x2="1002.03" y2="620.76"/>
      <line class="cls-14" x1="971.35" y1="594.73" x2="1015.08" y2="594.73"/>
      <line class="cls-14" x1="1033.82" y1="503.98" x2="1001.09" y2="503.98"/>
      <line class="cls-14" x1="1016.8" y1="547.09" x2="987.27" y2="547.09"/>
      <line class="cls-2" x1="993.22" y1="479.11" x2="968.59" y2="479.11"/>
      <line class="cls-7" x1="1016.29" y1="570.63" x2="985.89" y2="570.63"/>
      <line class="cls-11" x1="911.05" y1="630.03" x2="884.34" y2="630.03"/>
      <line class="cls-13" x1="1026.11" y1="608.85" x2="1006.48" y2="608.85"/>
      <line class="cls-12" x1="999.16" y1="608.85" x2="981.79" y2="608.85"/>
      <line class="cls-12" x1="1033.82" y1="525.32" x2="1006.16" y2="525.32"/>
    </g>
    <g>
      <line class="cls-14" x1="802.2" y1="469.03" x2="874.3" y2="469.03"/>
      <line class="cls-14" x1="802.2" y1="479.11" x2="955.88" y2="479.11"/>
      <line class="cls-14" x1="874.3" y1="490.2" x2="970.65" y2="490.2"/>
      <line class="cls-14" x1="807.18" y1="504.32" x2="903.53" y2="504.32"/>
      <line class="cls-14" x1="807.18" y1="514.15" x2="872.23" y2="514.15"/>
      <line class="cls-14" x1="884.21" y1="514.15" x2="979.71" y2="514.15"/>
      <line class="cls-14" x1="979.71" y1="525.5" x2="907.61" y2="525.5"/>
      <line class="cls-14" x1="979.71" y1="535.59" x2="854.69" y2="535.59"/>
      <line class="cls-14" x1="907.61" y1="546.68" x2="811.26" y2="546.68"/>
      <line class="cls-14" x1="926.56" y1="560.8" x2="878.38" y2="560.8"/>
      <line class="cls-14" x1="974.73" y1="570.63" x2="909.68" y2="570.63"/>
      <line class="cls-14" x1="897.7" y1="570.63" x2="802.2" y2="570.63"/>
      <line class="cls-14" x1="802.2" y1="630.03" x2="874.3" y2="630.03"/>
      <line class="cls-14" x1="802.2" y1="619.94" x2="955.88" y2="619.94"/>
      <line class="cls-14" x1="874.3" y1="608.85" x2="970.65" y2="608.85"/>
      <line class="cls-14" x1="807.18" y1="594.73" x2="903.53" y2="594.73"/>
      <line class="cls-14" x1="807.18" y1="584.9" x2="872.23" y2="584.9"/>
      <line class="cls-14" x1="884.21" y1="584.9" x2="979.71" y2="584.9"/>
      <line class="cls-14" x1="802.2" y1="640.12" x2="955.88" y2="640.12"/>
      <line class="cls-14" x1="802.2" y1="650.21" x2="955.88" y2="650.21"/>
      <line class="cls-7" x1="802.2" y1="663.94" x2="943.66" y2="663.94"/>
      <line class="cls-7" x1="802.2" y1="560.8" x2="869.18" y2="560.8"/>
      <line class="cls-7" x1="884.21" y1="469.03" x2="951.19" y2="469.03"/>
      <line class="cls-11" x1="804.3" y1="490.2" x2="863.15" y2="490.2"/>
      <line class="cls-11" x1="918.01" y1="547.09" x2="976.86" y2="547.09"/>
      <line class="cls-13" x1="809.36" y1="525.5" x2="852.62" y2="525.5"/>
      <line class="cls-13" x1="912.62" y1="594.73" x2="955.88" y2="594.73"/>
      <line class="cls-12" x1="859.43" y1="525.5" x2="897.7" y2="525.5"/>
      <line class="cls-12" x1="802.2" y1="608.85" x2="863.15" y2="608.85"/>
      <line class="cls-12" x1="912.83" y1="504.32" x2="991.91" y2="504.32"/>
    </g>
  </g>
  <g>
    <line class="cls-1" x1="681.61" y1="585.78" x2="739.93" y2="585.78"/>
    <line class="cls-1" x1="681.61" y1="572.69" x2="723.27" y2="572.69"/>
    <line class="cls-1" x1="693.07" y1="559.61" x2="732.64" y2="559.61"/>
    <line class="cls-1" x1="681.61" y1="540.94" x2="739.93" y2="540.94"/>
    <line class="cls-1" x1="693.07" y1="525.54" x2="739.93" y2="525.54"/>
    <line class="cls-1" x1="681.61" y1="511.23" x2="739.93" y2="511.23"/>
    <line class="cls-1" x1="681.61" y1="498" x2="739.93" y2="498"/>
  </g>
  <g>
    <rect class="cls-23" x="391.12" y="841.39" width="435.27" height="284.5" rx="25.89" ry="25.89"/>
    <g>
      <rect class="cls-17" x="454.43" y="868.88" width="19.86" height="11.58"/>
      <rect class="cls-17" x="583.68" y="868.88" width="19.86" height="11.58"/>
      <rect class="cls-17" x="427.37" y="868.88" width="19.86" height="11.58"/>
      <rect class="cls-17" x="480.32" y="868.88" width="19.86" height="11.58"/>
      <rect class="cls-17" x="508.8" y="868.88" width="19.86" height="11.58"/>
      <rect class="cls-17" x="532.21" y="868.88" width="19.86" height="11.58"/>
      <rect class="cls-17" x="557.68" y="868.88" width="19.86" height="11.58"/>
      <rect class="cls-17" x="685.63" y="867.88" width="19.86" height="11.58"/>
      <rect class="cls-17" x="610.75" y="867.88" width="19.86" height="11.58"/>
      <rect class="cls-17" x="634.16" y="867.88" width="19.86" height="11.58"/>
      <rect class="cls-17" x="659.64" y="867.88" width="19.86" height="11.58"/>
      <rect class="cls-17" x="765.2" y="868.88" width="19.86" height="11.58"/>
      <rect class="cls-17" x="713.73" y="868.88" width="19.86" height="11.58"/>
      <rect class="cls-17" x="739.21" y="868.88" width="19.86" height="11.58"/>
      <rect class="cls-17" x="427.7" y="884.31" width="21.53" height="19.19"/>
      <rect class="cls-17" x="754.12" y="884.39" width="30.94" height="17.9"/>
      <rect class="cls-17" x="766.02" y="906.66" width="20.14" height="21.07"/>
      <rect class="cls-17" x="454.43" y="883.64" width="19.86" height="19.86"/>
      <rect class="cls-17" x="480.32" y="883.64" width="19.86" height="19.86"/>
      <rect class="cls-17" x="503.72" y="883.98" width="19.86" height="19.86"/>
      <rect class="cls-17" x="528.66" y="884.31" width="19.86" height="19.86"/>
      <rect class="cls-17" x="554.55" y="883.64" width="19.86" height="19.86"/>
      <rect class="cls-17" x="577.95" y="883.64" width="19.86" height="19.86"/>
      <rect class="cls-17" x="603.53" y="883.98" width="19.86" height="19.86"/>
      <rect class="cls-17" x="629.42" y="883.98" width="19.86" height="19.86"/>
      <rect class="cls-17" x="652.83" y="883.98" width="19.86" height="19.86"/>
      <rect class="cls-17" x="679.16" y="883.98" width="19.86" height="19.86"/>
      <rect class="cls-17" x="705.05" y="883.98" width="19.86" height="19.86"/>
      <rect class="cls-17" x="728.45" y="883.98" width="19.86" height="19.86"/>
      <rect class="cls-17" x="427.7" y="910.28" width="34.55" height="17.59"/>
      <rect class="cls-17" x="427.7" y="933.42" width="40.7" height="21.27"/>
      <rect class="cls-17" x="427.7" y="958.19" width="34.55" height="20.69"/>
      <rect class="cls-17" x="427.7" y="983.64" width="38.37" height="23.2"/>
      <rect class="cls-17" x="532.21" y="978.87" width="181.52" height="24.92"/>
      <rect class="cls-17" x="467.27" y="910.28" width="17.59" height="17.59"/>
      <rect class="cls-17" x="491.38" y="910.28" width="17.59" height="17.59"/>
      <rect class="cls-17" x="515.04" y="910.16" width="17.59" height="17.59"/>
      <rect class="cls-17" x="538.58" y="910.22" width="17.59" height="17.59"/>
      <rect class="cls-17" x="562.7" y="910.22" width="17.59" height="17.59"/>
      <rect class="cls-17" x="586.36" y="910.11" width="17.59" height="17.59"/>
      <rect class="cls-17" x="611.36" y="910.16" width="17.59" height="17.59"/>
      <rect class="cls-17" x="635.47" y="910.16" width="17.59" height="17.59"/>
      <rect class="cls-17" x="659.13" y="910.05" width="17.59" height="17.59"/>
      <rect class="cls-17" x="685.63" y="910.05" width="17.59" height="17.59"/>
      <rect class="cls-17" x="709.74" y="910.05" width="17.59" height="17.59"/>
      <rect class="cls-17" x="733.4" y="909.93" width="17.59" height="17.59"/>
      <rect class="cls-17" x="503.72" y="933.66" width="17.59" height="17.59"/>
      <rect class="cls-17" x="527.84" y="933.66" width="17.59" height="17.59"/>
      <rect class="cls-17" x="551.5" y="933.54" width="17.59" height="17.59"/>
      <rect class="cls-17" x="575.04" y="933.6" width="17.59" height="17.59"/>
      <rect class="cls-17" x="599.15" y="933.6" width="17.59" height="17.59"/>
      <rect class="cls-17" x="622.81" y="933.48" width="17.59" height="17.59"/>
      <rect class="cls-17" x="647.81" y="933.54" width="17.59" height="17.59"/>
      <rect class="cls-17" x="671.93" y="933.54" width="17.59" height="17.59"/>
      <rect class="cls-17" x="695.59" y="933.42" width="17.59" height="17.59"/>
      <rect class="cls-17" x="493.08" y="958.42" width="17.59" height="17.59"/>
      <rect class="cls-17" x="517.19" y="958.42" width="17.59" height="17.59"/>
      <rect class="cls-17" x="540.85" y="958.31" width="17.59" height="17.59"/>
      <rect class="cls-17" x="564.39" y="958.36" width="17.59" height="17.59"/>
      <rect class="cls-17" x="588.51" y="958.36" width="17.59" height="17.59"/>
      <rect class="cls-17" x="612.17" y="958.25" width="17.59" height="17.59"/>
      <rect class="cls-17" x="637.17" y="958.31" width="17.59" height="17.59"/>
      <rect class="cls-17" x="661.28" y="958.31" width="17.59" height="17.59"/>
      <rect class="cls-17" x="684.94" y="958.19" width="17.59" height="17.59"/>
    </g>
    <rect class="cls-8" x="542.14" y="1022.42" width="134.59" height="86.11"/>
    <path class="cls-15" d="M836.19,565.49c-151.19-.65-302.47-.31-453.68-.11-4.41.27-8.8,1.14-12.33,3.59-10.4,7.36-8.39,22.65-6.75,33.85,11.4,77.5,22.66,155.01,34.12,232.49,1.05,8.11,6.77,8.51,13.83,8.3,130.05-.44,260.1-.6,390.15-1.17,3.39-.14,6.85-.65,9.55-2.49,3.13-2.05,4.81-5.64,5.67-9.42,11.17-76.35,21.05-152.92,31.75-229.35.98-7.38,1.69-14.86,1.27-22.28-.33-7.58-5.84-12.88-13.39-13.38l-.19-.02Z"/>
    <path class="cls-19" d="M380.36,575.75c150.88-1.19,301.78-2.18,452.68-3.04,6.8.06,13.51,2.79,12.66,10.7-11.71,80.61-24.3,161.13-36.31,241.71-1.38,11.17-4.57,14.61-16.27,14.04-127.03-.03-254.07.1-381.1,0-2.66-.09-5.44-.38-7.52-1.81-2.06-1.35-3.13-3.82-3.61-6.36-10.94-76.64-21.36-153.37-32.13-230.03-1.66-9.44-2.22-26.11,11.41-25.21h.19Z"/>
    <polygon class="cls-21" points="385.73 594.65 826.38 594.65 796.81 823.7 413.8 823.7 385.73 594.65"/>
  </g>
  <g>
    <ellipse class="cls-18" cx="776.11" cy="1107.52" rx="50.62" ry="33.94" transform="translate(-449.78 536.43) rotate(-30)"/>
    <ellipse class="cls-18" cx="444.87" cy="1123.96" rx="36.64" ry="65.83" transform="translate(-759.11 1016.16) rotate(-63.29)"/>
    <g>
      <path class="cls-24" d="M522.66,922.65c.25-.13.56-.24.94-.33,1.57-.39,3.98.2,5.51.55,3.59.82,6.94,2.53,9.52,4.95.48.45.95.94,1.2,1.53.21.5.25,1.04.28,1.57.12,2.65-.31,5.53-2.36,7.41-1.57,1.43-3.84,2.03-6.05,2.21s-4.44,0-6.65.12c-5.32.3-10.5,2.46-14.22,5.94,2.31-2.1,3.59-7.6,4.9-10.37,1.72-3.63,3.43-7.26,5.15-10.88.66-1.41.8-2.2,1.78-2.7Z"/>
      <polygon class="cls-24" points="489.07 932.31 509.22 927.39 485.55 989.48 471.49 986.91 489.07 932.31"/>
      <polygon class="cls-24" points="464 941.45 477.12 936.53 464 997.68 452.05 993.93 464 941.45"/>
      <path class="cls-28" d="M500.32,1148.01l6.01-11.15,13.82-17.35,15.02-20.45s15.5-24.58,15.63-24.78c7.54-11.95,13.46-23.74,17.82-37.34,4.67-14.57,8.65-29.85,17.67-42.34,1.75-2.42,3.79-5.19,3.15-8.14-.79-3.65-5.22-5.07-8.84-4.7-7.7.8-14.19,6.53-18.46,13.19-4.27,6.65-6.8,14.3-10.1,21.52s-7.66,14.32-14.33,18.37c.35-.21-.1-16.34.16-18.21.93-6.6,2.79-13.06,5.53-19.11,3.01-6.65,5.52-13.29,8.53-19.98l4.67-7.92,3.87-5.93,3.5-6.36,2.17-4.64.5-4.98-.33-4.98-1.67-2.92-3-1.72h-4.67l-5.17,1.55-4.17,4.47-4.17,6.02-5,5.16-3.67,6.7-5.83,10.14-4.17,8.25-2.67,3.95-2.83,2.06-3,.52-3.17-2.23-2-5.33.83-10.14,1.5-10.31,2.17-7.91,2.33-5.84,3.67-2.75,2.67-1.03,2.83-2.41,3.17-3.27,1.67-3.27.67-5.33-1.33-4.81-4.17-2.41h-4.67s-8,2.06-8,2.06c-5.18,2.89-10.75,5.5-14.8,10.02-5.25,5.86-7.6,13.82-9.43,21.56-1.53,6.47-2.82,13.01-3.85,19.58-.28,1.77-.55,3.58-1.36,5.17s-2.28,2.94-4.01,3.06c-1.91-1.56-1.63-4.57-1.18-7.03,1.67-9.02,3.33-18.04,5-27.06.49-2.65,1.04-5.44,2.73-7.5,1.1-1.35,2.6-2.27,4.05-3.2,6.22-3.98,12.13-8.49,17.64-13.46-.66.6-4.03-.06-4.86-.08-3.18,0-6.28-.29-9.44.11-1.89.23-3.91.72-5.82.72l-11.5,5.67s-6.5,4.81-6.5,4.81c-5.44,7.9-6.83,16.48-7.11,26.07-.22,7.64.08,15.35-1.25,22.87-.47,2.64-1.38,5.56-3.73,6.72-.18-7.65-.35-15.35.89-22.9.75-4.55,2-9,3.25-13.43,1.31-4.66,2.62-9.31,3.94-13.97.66-2.33,1.34-3.45-1.3-2.76-1.13.29-2.24.68-3.35,1.02l-5.33,5.16-4.83,5.5-5,7.73-2,5.5v65.33l-.92,7.66-1.19,10.4-1.33,12.45-1.59,20.25-2.79,16.42-1.06,8.89v9.17l63.91,35.65Z"/>
      <path class="cls-10" d="M580.91,1003.44c-4.53-2.43-5.62-7.59-3.23-12.23,1.77-3.45,4.3-3.24,7.64-3.24l1.3,1.8"/>
    </g>
    <g>
      <path class="cls-24" d="M695.32,901.56c-.27-.1-.59-.18-.99-.23-1.63-.22-3.98.65-5.49,1.18-3.52,1.24-6.7,3.36-9.03,6.12-.44.52-.85,1.07-1.03,1.7-.16.53-.14,1.09-.1,1.64.18,2.71.94,5.61,3.23,7.3,1.74,1.28,4.1,1.64,6.35,1.58s4.47-.5,6.71-.63c5.4-.29,10.86,1.33,15,4.46-2.56-1.88-4.49-7.35-6.12-10.03-2.14-3.51-4.29-7.02-6.43-10.53-.83-1.36-1.06-2.16-2.11-2.56Z"/>
      <polygon class="cls-24" points="730.27 907.63 709.41 904.88 740.34 965.58 754.21 961.37 730.27 907.63"/>
      <polygon class="cls-24" points="756.58 914.13 742.8 910.59 762.99 971.52 774.61 966.35 756.58 914.13"/>
      <path class="cls-28" d="M743.55,1129.04l-7.33-10.71-15.91-16.15-17.47-19.17s-18.42-23.34-18.57-23.53c-8.96-11.35-16.27-22.71-22.22-36.1-6.37-14.34-12.12-29.49-22.64-41.22-2.04-2.28-4.42-4.87-4.11-7.95.38-3.82,4.68-5.77,8.37-5.79,7.85-.05,15.04,5.07,20.11,11.38,5.06,6.31,8.49,13.83,12.64,20.83,4.15,6.99,9.35,13.75,16.54,17.14-.38-.18-1.76-16.69-2.24-18.57-1.69-6.63-4.3-13.02-7.75-18.88-3.79-6.44-7.08-12.94-10.88-19.43l-5.61-7.56-4.58-5.62-4.25-6.1-2.71-4.49-1.07-5.03-.23-5.12,1.35-3.17,2.83-2.09,4.7-.53,5.38,1,4.71,4.09,4.89,5.67,5.63,4.7,4.46,6.43,7.04,9.69,5.14,7.95,3.14,3.73,3.09,1.79,3.08.19,2.94-2.64,1.41-5.66-2-10.25-2.69-10.36-3.09-7.82-3.02-5.7-4.01-2.39-2.81-.75-3.13-2.14-3.56-2.98-2.05-3.14-1.28-5.36.79-5.06,3.92-2.93,4.7-.53s8.3,1.2,8.3,1.2c5.55,2.36,11.46,4.4,16.06,8.56,5.95,5.39,9.23,13.25,11.96,20.94,2.28,6.43,4.32,12.96,6.11,19.55.48,1.77.96,3.59,1.96,5.12s2.63,2.74,4.39,2.67c1.74-1.8,1.13-4.85.39-7.31-2.71-9.02-5.42-18.04-8.13-27.05-.8-2.65-1.67-5.43-3.6-7.35-1.26-1.25-2.88-2.02-4.44-2.81-6.72-3.36-13.19-7.3-19.3-11.75.73.54,4.05-.51,4.89-.63,3.2-.36,6.29-1,9.52-.96,1.93.03,4.02.29,5.94.08l12.24,4.49s7.1,4.18,7.1,4.18c6.38,7.45,8.76,16.05,10.14,25.81,1.1,7.77,1.67,15.67,3.87,23.2.77,2.64,2.03,5.52,4.52,6.43-.69-7.83-1.4-15.71-3.51-23.27-1.27-4.56-3.04-8.96-4.81-13.34-1.85-4.6-3.7-9.21-5.56-13.81-.93-2.31-1.75-3.37.99-2.97,1.17.17,2.33.44,3.49.66l5.96,4.66,5.5,5.07,5.92,7.33,2.64,5.39,2.35,21.05,3.92,35.08,1.18,10.55,1.8,7.72,2.39,10.48,2.76,12.56,3.91,20.49,4.68,16.44,2.08,8.96,1.05,9.36-60.33,43.58Z"/>
    </g>
    <path class="cls-28" d="M709.41,1086.55c-5.72-5.93-12.92-10.7-19.05-16.25-6.98-6.33-13.67-12.98-20.03-19.94-1.77-1.93-3.52-3.91-4.86-6.16-1.62-2.75-2.57-5.83-3.5-8.88-1.81-5.93-3.63-11.86-5.44-17.79-1.26-4.13-2.54-8.29-4.46-12.16-1.65-3.32-3.77-6.4-5.18-9.84-1.56-3.81-2.14-8.12-4.29-11.67-1.73-2.86-4.26-5.34-6.38-7.92"/>
    <path class="cls-10" d="M646.02,990.83c2.48-1.58,4.52-2.32,4.56-5.61.02-1.75-.06-3.52-.58-5.19-.98-3.14-4.77-7.06-8.37-6.2l-3.18,3.07"/>
    <polygon class="cls-25" points="535.18 1099.06 490.35 1142.45 500.32 1148.01 535.18 1099.06"/>
    <path class="cls-16" d="M743.61,1129c1.45-1.05-42.98-46.99-45.19-52.05,13.59,7.91,26.9,16.47,40.03,25.13,7.14,4.71,14.37,9.71,19.2,16.77-4.68,3.38-9.36,6.77-14.04,10.15Z"/>
    <path class="cls-22" d="M734.77,1130.69c5.26-8.69,27.14-15.71,36.2-21.74,15.63-10.41,29.77-23.05,41.79-37.48,40.62,73.51,81.26,147.05,118.83,222.18,21.66,43.31,42.42,87.5,54.25,134.46-47.77.03-95.54.06-143.31.09-2.25,0-20.47-78.45-22.81-86.07-9.02-29.37-19.02-61.02-35.04-87.45-13.18-21.73-21.36-44.38-30.46-68.52-5.05-12.87-22.09-39.19-20.55-52.4.12-1.04.51-2.06,1.11-3.06Z"/>
    <path class="cls-22" d="M398.58,1086.4c30.64,22.93,65.07,40.4,100.49,54.48l10.15,2.41s-25.79,44.13-25.79,44.13c-20.01,38.69-30.86,80.1-47.79,120.02-11.74,27.68-27.68,54.44-30.79,84.34-43.28-5.66-86.56-11.33-129.83-16.99,1.72.22,16.19-38.04,17.48-41,8.03-18.45,16.06-36.9,24.09-55.35,8.91-20.47,17.81-40.93,27.22-61.17,8.57-18.43,17.63-36.92,21.64-56.84,1.47-7.33,2.25-14.79,4.11-22.03,1.9-7.43,4.92-14.51,7.92-21.57,2.12-4.99,10.69-33.35,15.85-33.12,1.73.08,3.22,1.17,4.6,2.21.22.16.44.33.66.49Z"/>
    <path class="cls-26" d="M477.8,1135.39c-12.03,25.98-20.88,53.64-30.91,80.45-9.8,26.18-19.59,52.36-29.39,78.54-12.15,32.46-24.29,64.92-36.44,97.4h23.78c2.41,0,10.87-39.68,12.54-44.09,1.52-4,4.16-7.2,5.88-11.15,4.27-9.77,7.89-19.89,11.82-29.8,7.88-19.87,15.76-39.73,23.64-59.6l4.73-11.92c4.74-11.95,9.48-23.91,14.92-35.55,9.06-19.41,20.02-37.87,30.95-56.29-10.07-3.61-20.13-7.23-30.2-10.84-.45.95-.9,1.9-1.34,2.86Z"/>
    <path class="cls-26" d="M740.73,1124.92c19.53,44.88,39.05,89.77,58.58,134.65,20.1,46.2,68.61,117.7,69.07,167.44-8.53,1.47-16.88,1.13-25.6,1.12-23.88-100.92-79.42-187.32-107.94-284.67l-1.19-9.71,1.11-3.06,3.72-4.07s2.24-1.7,2.24-1.7Z"/>
  </g>
  <rect class="cls-27" x="630.15" y="422.22" width="439.47" height="22.22"/>
  <rect class="cls-20" x="178.73" y="1010.84" width="93.56" height="187.39"/>
  <line class="cls-6" x1="781.07" y1="470.87" x2="788.5" y2="470.87"/>
  <line class="cls-6" x1="781.07" y1="477.41" x2="788.5" y2="477.41"/>
  <line class="cls-6" x1="781.07" y1="483.96" x2="788.5" y2="483.96"/>
  <line class="cls-6" x1="781.07" y1="490.5" x2="788.5" y2="490.5"/>
  <line class="cls-6" x1="781.07" y1="497.04" x2="788.5" y2="497.04"/>
  <line class="cls-6" x1="781.07" y1="503.59" x2="788.5" y2="503.59"/>
  <line class="cls-6" x1="781.07" y1="510.13" x2="788.5" y2="510.13"/>
  <line class="cls-6" x1="781.07" y1="516.68" x2="788.5" y2="516.68"/>
  <line class="cls-6" x1="781.07" y1="523.22" x2="788.5" y2="523.22"/>
  <line class="cls-6" x1="781.07" y1="529.76" x2="788.5" y2="529.76"/>
  <line class="cls-6" x1="789.88" y1="525.3" x2="797.3" y2="525.3"/>
  <line class="cls-6" x1="789.88" y1="531.84" x2="797.3" y2="531.84"/>
  <line class="cls-6" x1="789.88" y1="538.39" x2="797.3" y2="538.39"/>
  <line class="cls-6" x1="789.88" y1="544.93" x2="797.3" y2="544.93"/>
  <line class="cls-6" x1="789.88" y1="551.47" x2="797.3" y2="551.47"/>
  <line class="cls-6" x1="789.88" y1="556.44" x2="797.3" y2="556.44"/>
  <line class="cls-6" x1="789.88" y1="562.98" x2="797.3" y2="562.98"/>
  <line class="cls-6" x1="789.88" y1="569.52" x2="797.3" y2="569.52"/>
  <line class="cls-6" x1="789.88" y1="547.07" x2="797.3" y2="547.07"/>
  <line class="cls-6" x1="789.88" y1="553.61" x2="797.3" y2="553.61"/>
  <g>
    <line class="cls-6" x1="281.87" y1="1140.98" x2="289.3" y2="1140.98"/>
    <line class="cls-6" x1="281.87" y1="1147.52" x2="289.3" y2="1147.52"/>
    <line class="cls-6" x1="281.87" y1="1154.06" x2="289.3" y2="1154.06"/>
    <line class="cls-6" x1="281.87" y1="1160.61" x2="289.3" y2="1160.61"/>
    <line class="cls-6" x1="281.87" y1="1167.15" x2="289.3" y2="1167.15"/>
  </g>
  <line class="cls-6" x1="281.87" y1="1012.64" x2="289.3" y2="1012.64"/>
  <line class="cls-6" x1="281.87" y1="1019.19" x2="289.3" y2="1019.19"/>
  <line class="cls-6" x1="281.87" y1="1025.73" x2="289.3" y2="1025.73"/>
  <line class="cls-6" x1="281.87" y1="1032.27" x2="289.3" y2="1032.27"/>
  <line class="cls-6" x1="281.87" y1="1038.82" x2="289.3" y2="1038.82"/>
  <line class="cls-6" x1="281.87" y1="1045.36" x2="289.3" y2="1045.36"/>
  <line class="cls-6" x1="281.87" y1="1051.91" x2="289.3" y2="1051.91"/>
  <line class="cls-6" x1="281.87" y1="1058.45" x2="289.3" y2="1058.45"/>
  <line class="cls-6" x1="281.87" y1="1064.99" x2="289.3" y2="1064.99"/>
  <line class="cls-6" x1="281.87" y1="1071.54" x2="289.3" y2="1071.54"/>
  <line class="cls-6" x1="281.87" y1="1077.12" x2="289.3" y2="1077.12"/>
  <line class="cls-6" x1="281.87" y1="1083.66" x2="289.3" y2="1083.66"/>
  <line class="cls-6" x1="281.87" y1="1090.21" x2="289.3" y2="1090.21"/>
  <line class="cls-6" x1="281.87" y1="1096.75" x2="289.3" y2="1096.75"/>
  <line class="cls-6" x1="281.87" y1="1103.3" x2="289.3" y2="1103.3"/>
  <line class="cls-6" x1="281.87" y1="1108.26" x2="289.3" y2="1108.26"/>
  <line class="cls-6" x1="281.87" y1="1114.8" x2="289.3" y2="1114.8"/>
  <line class="cls-6" x1="281.87" y1="1121.34" x2="289.3" y2="1121.34"/>
  <line class="cls-6" x1="281.87" y1="1127.89" x2="289.3" y2="1127.89"/>
  <line class="cls-6" x1="281.87" y1="1134.43" x2="289.3" y2="1134.43"/>
  <g>
    <line class="cls-6" x1="281.87" y1="1173.7" x2="289.3" y2="1173.7"/>
    <line class="cls-6" x1="281.87" y1="1180.24" x2="289.3" y2="1180.24"/>
    <line class="cls-6" x1="281.87" y1="1186.78" x2="289.3" y2="1186.78"/>
    <line class="cls-6" x1="281.87" y1="1193.33" x2="289.3" y2="1193.33"/>
  </g>
  <g>
    <line class="cls-1" x1="196.35" y1="1039.77" x2="254.67" y2="1039.77"/>
    <line class="cls-1" x1="196.35" y1="1052.86" x2="238.01" y2="1052.86"/>
    <line class="cls-1" x1="207.81" y1="1065.95" x2="247.38" y2="1065.95"/>
    <line class="cls-1" x1="196.35" y1="1084.62" x2="254.67" y2="1084.62"/>
    <line class="cls-1" x1="207.81" y1="1100.02" x2="254.67" y2="1100.02"/>
    <line class="cls-1" x1="196.35" y1="1114.32" x2="254.67" y2="1114.32"/>
    <line class="cls-1" x1="196.35" y1="1127.56" x2="254.67" y2="1127.56"/>
  </g>
  <g>
    <line class="cls-6" x1="528.55" y1="765.33" x2="529.48" y2="765.33"/>
    <line class="cls-6" x1="528.55" y1="773.38" x2="529.48" y2="773.38"/>
    <line class="cls-6" x1="528.55" y1="781.43" x2="529.48" y2="781.43"/>
    <line class="cls-6" x1="528.55" y1="789.48" x2="529.48" y2="789.48"/>
    <line class="cls-6" x1="528.55" y1="797.53" x2="529.48" y2="797.53"/>
  </g>
  <g>
    <g>
      <line class="cls-7" x1="700.99" y1="754.8" x2="662.46" y2="754.8"/>
      <line class="cls-14" x1="759.18" y1="747.83" x2="733.16" y2="747.83"/>
      <line class="cls-14" x1="706.13" y1="728.26" x2="744.66" y2="728.26"/>
      <line class="cls-14" x1="761.17" y1="660.02" x2="732.33" y2="660.02"/>
      <line class="cls-14" x1="746.17" y1="692.43" x2="720.15" y2="692.43"/>
      <line class="cls-2" x1="725.39" y1="641.32" x2="703.69" y2="641.32"/>
      <line class="cls-7" x1="745.73" y1="710.13" x2="718.94" y2="710.13"/>
      <line class="cls-11" x1="653" y1="754.8" x2="629.46" y2="754.8"/>
      <line class="cls-13" x1="754.38" y1="738.87" x2="737.08" y2="738.87"/>
      <line class="cls-12" x1="730.63" y1="738.87" x2="715.33" y2="738.87"/>
      <line class="cls-12" x1="761.17" y1="676.07" x2="736.79" y2="676.07"/>
    </g>
    <g>
      <line class="cls-14" x1="557.1" y1="612.71" x2="622.73" y2="612.71"/>
      <line class="cls-14" x1="557.1" y1="622.63" x2="697" y2="622.63"/>
      <line class="cls-14" x1="622.73" y1="633.54" x2="710.45" y2="633.54"/>
      <line class="cls-14" x1="561.62" y1="647.43" x2="649.34" y2="647.43"/>
      <line class="cls-14" x1="561.62" y1="657.1" x2="620.85" y2="657.1"/>
      <line class="cls-14" x1="631.76" y1="657.1" x2="718.69" y2="657.1"/>
      <line class="cls-14" x1="718.69" y1="668.26" x2="653.06" y2="668.26"/>
      <line class="cls-14" x1="718.69" y1="678.19" x2="604.88" y2="678.19"/>
      <line class="cls-14" x1="653.06" y1="689.1" x2="565.34" y2="689.1"/>
      <line class="cls-14" x1="670.3" y1="702.99" x2="626.44" y2="702.99"/>
      <line class="cls-14" x1="714.16" y1="712.66" x2="654.94" y2="712.66"/>
      <line class="cls-14" x1="644.03" y1="712.66" x2="557.1" y2="712.66"/>
      <line class="cls-14" x1="557.1" y1="771.1" x2="622.73" y2="771.1"/>
      <line class="cls-14" x1="557.1" y1="761.17" x2="697" y2="761.17"/>
      <line class="cls-14" x1="622.73" y1="750.26" x2="710.45" y2="750.26"/>
      <line class="cls-14" x1="561.62" y1="736.37" x2="649.34" y2="736.37"/>
      <line class="cls-14" x1="561.62" y1="726.7" x2="620.85" y2="726.7"/>
      <line class="cls-14" x1="631.76" y1="726.7" x2="718.69" y2="726.7"/>
      <line class="cls-14" x1="557.1" y1="781.02" x2="670.3" y2="781.02"/>
      <line class="cls-14" x1="557.1" y1="790.95" x2="649.34" y2="790.95"/>
      <line class="cls-7" x1="557.1" y1="804.46" x2="657.81" y2="804.46"/>
      <line class="cls-7" x1="557.1" y1="702.99" x2="618.07" y2="702.99"/>
      <line class="cls-7" x1="631.76" y1="612.71" x2="692.73" y2="612.71"/>
      <line class="cls-11" x1="559" y1="633.54" x2="612.58" y2="633.54"/>
      <line class="cls-11" x1="662.53" y1="689.5" x2="716.1" y2="689.5"/>
      <line class="cls-13" x1="563.61" y1="668.26" x2="602.99" y2="668.26"/>
      <line class="cls-13" x1="657.62" y1="736.37" x2="697" y2="736.37"/>
      <line class="cls-12" x1="609.2" y1="668.26" x2="644.03" y2="668.26"/>
      <line class="cls-12" x1="557.1" y1="750.26" x2="612.58" y2="750.26"/>
      <line class="cls-12" x1="657.81" y1="647.43" x2="729.8" y2="647.43"/>
    </g>
  </g>
  <line class="cls-6" x1="528.55" y1="607.48" x2="533.31" y2="607.48"/>
  <line class="cls-6" x1="528.55" y1="615.53" x2="533.31" y2="615.53"/>
  <line class="cls-6" x1="528.55" y1="623.58" x2="533.31" y2="623.58"/>
  <line class="cls-6" x1="528.55" y1="631.63" x2="533.31" y2="631.63"/>
  <line class="cls-6" x1="528.55" y1="639.68" x2="533.31" y2="639.68"/>
  <line class="cls-6" x1="528.55" y1="647.73" x2="533.31" y2="647.73"/>
  <line class="cls-6" x1="528.55" y1="655.78" x2="533.31" y2="655.78"/>
  <line class="cls-6" x1="528.55" y1="663.82" x2="533.31" y2="663.82"/>
  <line class="cls-6" x1="528.55" y1="679.92" x2="531.48" y2="679.92"/>
  <line class="cls-6" x1="528.55" y1="686.79" x2="531.48" y2="686.79"/>
  <line class="cls-6" x1="528.55" y1="694.84" x2="531.48" y2="694.84"/>
  <line class="cls-6" x1="528.55" y1="702.89" x2="531.48" y2="702.89"/>
  <line class="cls-6" x1="528.55" y1="710.93" x2="531.48" y2="710.93"/>
  <line class="cls-6" x1="528.55" y1="718.98" x2="531.48" y2="718.98"/>
  <line class="cls-6" x1="528.55" y1="733.14" x2="530.93" y2="733.14"/>
  <line class="cls-6" x1="528.55" y1="741.18" x2="530.93" y2="741.18"/>
  <line class="cls-6" x1="528.55" y1="749.23" x2="530.93" y2="749.23"/>
  <line class="cls-6" x1="528.55" y1="757.28" x2="530.93" y2="757.28"/>
  <g>
    <line class="cls-5" x1="454.43" y1="747.74" x2="489.08" y2="747.74"/>
    <line class="cls-5" x1="454.43" y1="731.26" x2="479.18" y2="731.26"/>
    <line class="cls-3" x1="461.24" y1="714.78" x2="484.75" y2="714.78"/>
    <line class="cls-9" x1="454.43" y1="691.28" x2="489.08" y2="691.28"/>
    <line class="cls-9" x1="461.24" y1="671.89" x2="489.08" y2="671.89"/>
    <line class="cls-1" x1="454.43" y1="653.88" x2="489.08" y2="653.88"/>
    <line class="cls-1" x1="454.43" y1="637.22" x2="489.08" y2="637.22"/>
  </g>
</svg>